<svg width="1093" height="1110" viewBox="0 0 1093 1110" fill="none" xmlns="http://www.w3.org/2000/svg">
<mask id="path-1-inside-1_1_12" fill="white">
<path d="M146.823 2.12708C146.423 3.46045 143.089 19.1938 139.356 37.1938C135.623 55.1938 132.023 72.2605 131.356 75.1938C130.023 80.7938 119.489 130.394 118.556 135.594C118.156 137.194 115.889 148.26 113.356 160.26C110.956 172.127 108.556 183.327 108.156 185.194C107.889 187.06 105.489 198.394 102.823 210.527C96.9558 238.26 90.1558 270.127 89.4892 273.727C88.4225 278.927 75.2225 341.86 74.6892 343.86C74.0225 346.66 67.3558 378.527 66.5558 382.527C66.0225 385.327 65.3558 388.794 63.8892 395.194C63.4892 396.927 56.8225 428.927 56.0225 432.527C54.0225 442.26 44.0225 490.127 42.6892 495.86C42.4225 496.927 40.2892 506.794 38.0225 517.86C35.6225 528.794 33.4892 539.06 33.2225 540.527C32.8225 541.994 32.2892 544.66 31.8892 546.527C31.3558 549.727 30.6892 553.327 29.4892 559.194C29.0892 560.66 27.3558 568.927 25.4892 577.461C23.6225 585.994 21.7558 594.66 21.4892 596.66C21.0892 598.66 20.1558 603.327 19.3558 607.06C18.5558 610.794 17.7558 615.06 17.4892 616.527C17.2225 617.994 16.0225 623.194 14.8225 628.26C13.6225 633.194 12.4225 638.794 12.0225 640.927C10.4225 649.327 9.75584 652.66 4.8225 675.994C1.88917 689.46 -0.244162 700.66 0.0225045 701.06C0.289171 701.594 42.0225 701.861 92.9558 701.861H185.356L188.289 688.527C190.023 681.194 191.623 673.327 192.023 671.194C192.423 668.927 196.023 651.861 200.023 633.194C204.023 614.527 207.489 597.727 207.889 595.86C208.156 593.994 211.489 578.394 215.223 561.194C218.823 543.994 222.156 528.394 222.556 526.527C223.623 520.927 225.889 509.994 226.556 507.194C226.956 505.727 229.623 492.794 232.689 478.527C235.623 464.26 238.423 451.06 238.823 449.194L239.489 445.86L304.689 445.994C340.423 446.127 374.023 446.66 379.223 447.06C424.423 451.194 450.289 476.394 454.956 520.927C456.556 536.927 455.756 576.527 453.089 613.86C452.423 621.194 452.023 639.727 452.023 655.194C452.023 677.994 452.556 685.327 454.556 694.527C458.423 711.327 460.689 715.327 474.289 729.727C481.089 737.06 488.156 744.527 490.023 746.527C491.889 748.394 502.423 759.594 513.356 771.194C524.423 782.794 535.489 794.527 538.023 797.194C540.556 799.994 546.956 806.66 552.023 811.994C590.423 852.66 597.356 860.26 596.956 861.594C596.689 862.527 594.956 866.527 593.089 870.527C591.223 874.527 587.756 881.994 585.356 887.194C580.556 897.594 574.689 910.127 567.756 925.194C565.089 930.661 561.356 938.794 559.356 943.194C545.356 973.594 520.823 1026.53 516.023 1036.53C512.956 1043.06 508.956 1051.46 507.356 1055.19C505.623 1058.79 499.356 1072.53 493.356 1085.46C487.223 1098.53 482.556 1109.19 482.956 1109.19C483.489 1109.19 527.223 1083.19 589.356 1046.13C604.023 1037.33 617.889 1029.06 620.023 1027.86C622.289 1026.66 628.023 1023.06 633.089 1020.13C638.023 1017.06 642.689 1014.53 643.356 1014.53C644.156 1014.53 644.689 1013.99 644.689 1013.33C644.689 1012.66 645.756 1011.86 647.089 1011.33C648.289 1010.93 656.289 1006.39 664.689 1001.33C673.089 996.261 685.756 988.661 692.689 984.527C699.623 980.394 706.289 976.527 707.356 975.861C727.756 963.327 729.089 962.661 732.556 964.927C734.423 966.127 736.689 967.727 737.489 968.527C738.423 969.194 744.956 974.394 752.023 979.861C759.223 985.327 773.623 996.394 784.156 1004.53C794.556 1012.53 811.756 1025.73 822.289 1033.86C832.689 1041.86 844.423 1050.79 848.156 1053.86C851.889 1056.79 856.823 1060.66 859.356 1062.53C861.756 1064.39 874.823 1074.39 888.423 1084.79C902.023 1095.33 913.356 1103.86 913.623 1103.86C914.156 1103.86 913.356 1097.46 911.356 1085.19C910.689 1081.19 909.756 1075.19 909.489 1071.86C909.089 1068.53 908.556 1064.66 908.156 1063.19C907.889 1061.73 907.223 1057.59 906.823 1054.13C906.289 1050.53 905.623 1046.66 905.489 1045.46C905.223 1044.13 904.556 1039.59 904.023 1035.19C903.489 1030.93 902.956 1026.39 902.689 1025.19C902.556 1024.13 902.023 1020.39 901.489 1017.06C900.956 1013.73 900.289 1009.46 900.023 1007.73C899.756 1005.99 898.823 999.727 898.023 993.861C897.223 987.994 896.289 981.594 895.889 979.461C894.423 970.127 894.156 968.127 893.356 961.861C892.956 958.127 892.289 954.261 892.023 953.194C891.756 952.127 891.223 948.127 890.689 944.527C889.889 938.127 888.689 929.061 886.023 911.194C885.356 906.794 884.423 900.794 884.023 897.861C883.623 894.927 882.689 888.661 881.889 883.861C881.223 879.061 880.423 873.861 880.156 872.26C879.756 869.594 887.089 864.127 931.623 832.927C960.156 812.927 989.623 792.26 997.089 786.927C1004.56 781.727 1015.49 773.994 1021.36 769.861C1027.22 765.727 1040.42 756.394 1050.69 749.194C1060.96 741.994 1074.69 732.394 1081.09 727.994L1092.96 719.861H974.823C909.889 719.861 856.689 719.46 856.689 718.794C856.689 718.26 855.489 710.66 854.023 701.861C852.423 693.06 850.956 683.994 850.689 681.861C849.623 673.861 848.556 667.06 847.356 660.527C846.689 656.794 845.756 651.46 845.356 648.527C844.689 643.46 842.556 629.727 841.356 622.527C841.089 620.66 838.956 607.46 836.689 593.194C834.556 578.927 831.489 559.727 830.023 550.527C828.423 541.327 826.956 531.994 826.689 529.86C826.289 527.594 825.756 524.394 825.356 522.527C824.956 520.66 824.423 516.794 824.023 513.86C823.623 510.927 823.089 507.327 822.823 505.86C821.756 500.26 820.156 489.727 820.023 488.26C820.023 487.327 819.356 486.66 818.689 486.927C817.489 487.194 813.223 494.127 783.356 544.527C777.756 553.994 767.756 570.794 761.223 581.86C754.689 592.794 748.956 602.794 748.423 603.86C747.889 604.927 732.556 631.06 714.289 661.861L681.089 717.861L668.156 717.994L655.223 718.127L651.489 710.66C643.623 695.194 636.423 667.727 634.423 646.26C633.223 633.994 633.356 604.794 634.689 567.194C636.689 509.327 636.289 477.327 633.356 457.06C632.023 447.86 625.889 428.527 621.623 420.527C614.956 408.127 600.556 394.394 587.223 387.994C581.089 385.06 573.223 381.86 569.756 381.06C566.156 380.127 563.356 378.794 563.356 378.26C563.356 377.727 565.623 376.927 568.423 376.527C622.023 367.46 662.556 345.46 689.223 310.66C705.223 289.994 718.823 257.727 722.689 231.594C723.223 228.527 723.756 225.594 724.023 225.194C725.223 223.194 726.556 200.794 726.689 182.527C726.689 154.927 725.089 139.06 720.556 120.66C704.956 58.6604 662.689 21.5938 590.823 7.19385C582.023 5.46045 571.089 3.59375 566.689 3.06042C562.289 2.6604 557.489 1.86047 556.023 1.46045C554.556 0.927124 462.023 0.393799 350.423 0.260498C156.689 -0.272827 147.489 -0.139526 146.823 2.12708ZM475.356 146.927C477.223 147.46 483.489 149.06 489.356 150.527C525.489 159.727 543.622 182.394 543.756 219.194C544.023 253.327 529.356 281.194 503.623 296.26C491.489 303.327 475.223 309.06 460.689 311.327C458.156 311.727 453.889 312.394 451.356 312.794C442.823 314.26 271.356 314.794 271.356 313.327C271.356 312.66 272.156 307.86 273.223 302.927C274.289 297.86 275.489 292.26 275.889 290.527C276.289 288.66 276.823 285.994 277.089 284.527C277.889 281.194 285.889 242.794 286.556 239.194C287.622 233.46 291.622 214.927 292.689 209.86C294.023 203.994 300.289 174.527 301.223 169.194C301.622 167.327 302.823 161.594 303.889 156.527C305.089 151.327 306.023 146.66 306.023 146.127C306.023 144.794 470.289 145.727 475.356 146.927Z"/>
</mask>
<path d="M146.823 2.12708C146.423 3.46045 143.089 19.1938 139.356 37.1938C135.623 55.1938 132.023 72.2605 131.356 75.1938C130.023 80.7938 119.489 130.394 118.556 135.594C118.156 137.194 115.889 148.26 113.356 160.26C110.956 172.127 108.556 183.327 108.156 185.194C107.889 187.06 105.489 198.394 102.823 210.527C96.9558 238.26 90.1558 270.127 89.4892 273.727C88.4225 278.927 75.2225 341.86 74.6892 343.86C74.0225 346.66 67.3558 378.527 66.5558 382.527C66.0225 385.327 65.3558 388.794 63.8892 395.194C63.4892 396.927 56.8225 428.927 56.0225 432.527C54.0225 442.26 44.0225 490.127 42.6892 495.86C42.4225 496.927 40.2892 506.794 38.0225 517.86C35.6225 528.794 33.4892 539.06 33.2225 540.527C32.8225 541.994 32.2892 544.66 31.8892 546.527C31.3558 549.727 30.6892 553.327 29.4892 559.194C29.0892 560.66 27.3558 568.927 25.4892 577.461C23.6225 585.994 21.7558 594.66 21.4892 596.66C21.0892 598.66 20.1558 603.327 19.3558 607.06C18.5558 610.794 17.7558 615.06 17.4892 616.527C17.2225 617.994 16.0225 623.194 14.8225 628.26C13.6225 633.194 12.4225 638.794 12.0225 640.927C10.4225 649.327 9.75584 652.66 4.8225 675.994C1.88917 689.46 -0.244162 700.66 0.0225045 701.06C0.289171 701.594 42.0225 701.861 92.9558 701.861H185.356L188.289 688.527C190.023 681.194 191.623 673.327 192.023 671.194C192.423 668.927 196.023 651.861 200.023 633.194C204.023 614.527 207.489 597.727 207.889 595.86C208.156 593.994 211.489 578.394 215.223 561.194C218.823 543.994 222.156 528.394 222.556 526.527C223.623 520.927 225.889 509.994 226.556 507.194C226.956 505.727 229.623 492.794 232.689 478.527C235.623 464.26 238.423 451.06 238.823 449.194L239.489 445.86L304.689 445.994C340.423 446.127 374.023 446.66 379.223 447.06C424.423 451.194 450.289 476.394 454.956 520.927C456.556 536.927 455.756 576.527 453.089 613.86C452.423 621.194 452.023 639.727 452.023 655.194C452.023 677.994 452.556 685.327 454.556 694.527C458.423 711.327 460.689 715.327 474.289 729.727C481.089 737.06 488.156 744.527 490.023 746.527C491.889 748.394 502.423 759.594 513.356 771.194C524.423 782.794 535.489 794.527 538.023 797.194C540.556 799.994 546.956 806.66 552.023 811.994C590.423 852.66 597.356 860.26 596.956 861.594C596.689 862.527 594.956 866.527 593.089 870.527C591.223 874.527 587.756 881.994 585.356 887.194C580.556 897.594 574.689 910.127 567.756 925.194C565.089 930.661 561.356 938.794 559.356 943.194C545.356 973.594 520.823 1026.53 516.023 1036.53C512.956 1043.06 508.956 1051.46 507.356 1055.19C505.623 1058.79 499.356 1072.53 493.356 1085.46C487.223 1098.53 482.556 1109.19 482.956 1109.19C483.489 1109.19 527.223 1083.19 589.356 1046.13C604.023 1037.33 617.889 1029.06 620.023 1027.86C622.289 1026.66 628.023 1023.06 633.089 1020.13C638.023 1017.06 642.689 1014.53 643.356 1014.53C644.156 1014.53 644.689 1013.99 644.689 1013.33C644.689 1012.66 645.756 1011.86 647.089 1011.33C648.289 1010.93 656.289 1006.39 664.689 1001.33C673.089 996.261 685.756 988.661 692.689 984.527C699.623 980.394 706.289 976.527 707.356 975.861C727.756 963.327 729.089 962.661 732.556 964.927C734.423 966.127 736.689 967.727 737.489 968.527C738.423 969.194 744.956 974.394 752.023 979.861C759.223 985.327 773.623 996.394 784.156 1004.53C794.556 1012.53 811.756 1025.73 822.289 1033.86C832.689 1041.86 844.423 1050.79 848.156 1053.86C851.889 1056.79 856.823 1060.66 859.356 1062.53C861.756 1064.39 874.823 1074.39 888.423 1084.79C902.023 1095.33 913.356 1103.86 913.623 1103.86C914.156 1103.86 913.356 1097.46 911.356 1085.19C910.689 1081.19 909.756 1075.19 909.489 1071.86C909.089 1068.53 908.556 1064.66 908.156 1063.19C907.889 1061.73 907.223 1057.59 906.823 1054.13C906.289 1050.53 905.623 1046.66 905.489 1045.46C905.223 1044.13 904.556 1039.59 904.023 1035.19C903.489 1030.93 902.956 1026.39 902.689 1025.19C902.556 1024.13 902.023 1020.39 901.489 1017.06C900.956 1013.73 900.289 1009.46 900.023 1007.73C899.756 1005.99 898.823 999.727 898.023 993.861C897.223 987.994 896.289 981.594 895.889 979.461C894.423 970.127 894.156 968.127 893.356 961.861C892.956 958.127 892.289 954.261 892.023 953.194C891.756 952.127 891.223 948.127 890.689 944.527C889.889 938.127 888.689 929.061 886.023 911.194C885.356 906.794 884.423 900.794 884.023 897.861C883.623 894.927 882.689 888.661 881.889 883.861C881.223 879.061 880.423 873.861 880.156 872.26C879.756 869.594 887.089 864.127 931.623 832.927C960.156 812.927 989.623 792.26 997.089 786.927C1004.56 781.727 1015.49 773.994 1021.36 769.861C1027.22 765.727 1040.42 756.394 1050.69 749.194C1060.96 741.994 1074.69 732.394 1081.09 727.994L1092.96 719.861H974.823C909.889 719.861 856.689 719.46 856.689 718.794C856.689 718.26 855.489 710.66 854.023 701.861C852.423 693.06 850.956 683.994 850.689 681.861C849.623 673.861 848.556 667.06 847.356 660.527C846.689 656.794 845.756 651.46 845.356 648.527C844.689 643.46 842.556 629.727 841.356 622.527C841.089 620.66 838.956 607.46 836.689 593.194C834.556 578.927 831.489 559.727 830.023 550.527C828.423 541.327 826.956 531.994 826.689 529.86C826.289 527.594 825.756 524.394 825.356 522.527C824.956 520.66 824.423 516.794 824.023 513.86C823.623 510.927 823.089 507.327 822.823 505.86C821.756 500.26 820.156 489.727 820.023 488.26C820.023 487.327 819.356 486.66 818.689 486.927C817.489 487.194 813.223 494.127 783.356 544.527C777.756 553.994 767.756 570.794 761.223 581.86C754.689 592.794 748.956 602.794 748.423 603.86C747.889 604.927 732.556 631.06 714.289 661.861L681.089 717.861L668.156 717.994L655.223 718.127L651.489 710.66C643.623 695.194 636.423 667.727 634.423 646.26C633.223 633.994 633.356 604.794 634.689 567.194C636.689 509.327 636.289 477.327 633.356 457.06C632.023 447.86 625.889 428.527 621.623 420.527C614.956 408.127 600.556 394.394 587.223 387.994C581.089 385.06 573.223 381.86 569.756 381.06C566.156 380.127 563.356 378.794 563.356 378.26C563.356 377.727 565.623 376.927 568.423 376.527C622.023 367.46 662.556 345.46 689.223 310.66C705.223 289.994 718.823 257.727 722.689 231.594C723.223 228.527 723.756 225.594 724.023 225.194C725.223 223.194 726.556 200.794 726.689 182.527C726.689 154.927 725.089 139.06 720.556 120.66C704.956 58.6604 662.689 21.5938 590.823 7.19385C582.023 5.46045 571.089 3.59375 566.689 3.06042C562.289 2.6604 557.489 1.86047 556.023 1.46045C554.556 0.927124 462.023 0.393799 350.423 0.260498C156.689 -0.272827 147.489 -0.139526 146.823 2.12708ZM475.356 146.927C477.223 147.46 483.489 149.06 489.356 150.527C525.489 159.727 543.622 182.394 543.756 219.194C544.023 253.327 529.356 281.194 503.623 296.26C491.489 303.327 475.223 309.06 460.689 311.327C458.156 311.727 453.889 312.394 451.356 312.794C442.823 314.26 271.356 314.794 271.356 313.327C271.356 312.66 272.156 307.86 273.223 302.927C274.289 297.86 275.489 292.26 275.889 290.527C276.289 288.66 276.823 285.994 277.089 284.527C277.889 281.194 285.889 242.794 286.556 239.194C287.622 233.46 291.622 214.927 292.689 209.86C294.023 203.994 300.289 174.527 301.223 169.194C301.622 167.327 302.823 161.594 303.889 156.527C305.089 151.327 306.023 146.66 306.023 146.127C306.023 144.794 470.289 145.727 475.356 146.927Z" fill="white" stroke="black" stroke-width="20" mask="url(#path-1-inside-1_1_12)"/>
</svg>
